<?xml version="1.0" encoding="utf-8"?>
<!-- Generator: Adobe Illustrator 21.0.2, SVG Export Plug-In . SVG Version: 6.00 Build 0)  -->
<svg version="1.1" id="Слой_1" xmlns="http://www.w3.org/2000/svg" xmlns:xlink="http://www.w3.org/1999/xlink" x="0px" y="0px"
	 viewBox="0 0 32 32" style="enable-background:new 0 0 32 32;" xml:space="preserve">
<style type="text/css">
	.st0{fill:#FFFFFF;}
</style>
<g id="Fullscreen">
	<path class="st0" d="M32,1c0-0.6-0.4-1-1-1h-9c-0.6,0-1,0.4-1,1c0,0.6,0.4,1,1,1h8l0,8c0,0.6,0.4,1,1,1c0.6,0,1-0.4,1-1L32,1
		C32,1,32,1,32,1C32,1,32,1,32,1z"/>
	<path class="st0" d="M10,0H1c0,0,0,0,0,0c0,0,0,0,0,0C0.5,0,0,0.4,0,1l0,9c0,0.6,0.4,1,1,1c0.6,0,1-0.4,1-1l0-8h8c0.6,0,1-0.4,1-1
		C11,0.4,10.6,0,10,0z"/>
	<path class="st0" d="M10,30H2v-8c0-0.6-0.4-1-1-1s-1,0.4-1,1v9c0,0,0,0,0,0c0,0,0,0,0,0c0,0.6,0.4,1,1,1h9c0.6,0,1-0.4,1-1
		C11,30.4,10.6,30,10,30z"/>
	<path class="st0" d="M31,21c-0.6,0-1,0.4-1,1v8h-8c-0.6,0-1,0.4-1,1s0.4,1,1,1h9c0,0,0,0,0,0c0,0,0,0,0,0c0.6,0,1-0.4,1-1v-9
		C32,21.4,31.6,21,31,21z"/>
</g>
</svg>
