<?xml version="1.0" encoding="utf-8"?>
<!-- Generator: Adobe Illustrator 21.0.2, SVG Export Plug-In . SVG Version: 6.00 Build 0)  -->
<svg version="1.1" id="Capa_1" xmlns="http://www.w3.org/2000/svg" xmlns:xlink="http://www.w3.org/1999/xlink" x="0px" y="0px"
	 viewBox="0 0 21.1 21.4" style="enable-background:new 0 0 21.1 21.4;" xml:space="preserve">
<style type="text/css">
	.st0{fill:#FFFFFF;}
</style>
<path class="st0" d="M10.5,0c5.8,0,10.5,4.8,10.5,10.7c0,5.9-4.7,10.7-10.5,10.7C4.7,21.4,0,16.6,0,10.7C0,4.8,4.7,0,10.5,0L10.5,0z
	 M19.1,6.7h-3.3c0.2,1,0.4,2.2,0.4,3.3H20C19.9,8.9,19.6,7.7,19.1,6.7L19.1,6.7z M15.2,6.7h-3.9V10h4.4C15.6,8.9,15.5,7.7,15.2,6.7
	L15.2,6.7z M9.9,6.7H5.9c-0.3,1-0.4,2.1-0.4,3.3h4.5V6.7L9.9,6.7z M5.2,6.7H1.9c-0.5,1-0.7,2.1-0.8,3.3h3.7C4.9,8.9,5,7.8,5.2,6.7
	L5.2,6.7z M2.7,5.4h2.9C6,3.9,6.7,2.6,7.5,1.6C5.5,2.3,3.8,3.6,2.7,5.4L2.7,5.4z M6.3,5.4h3.7V1.2C8.4,1.5,7.1,3.1,6.3,5.4L6.3,5.4z
	 M11.3,5.4h3.5c-0.8-2.2-2.1-3.8-3.5-4.2V5.4L11.3,5.4z M15.5,5.4h2.9c-1.1-1.7-2.8-3.1-4.8-3.8C14.4,2.6,15,3.9,15.5,5.4L15.5,5.4z
	 M20,11.4h-3.7c0,1.2-0.2,2.3-0.4,3.3h3.3C19.6,13.7,19.9,12.6,20,11.4L20,11.4z M15.7,11.4h-4.4v3.3h3.9
	C15.5,13.7,15.6,12.6,15.7,11.4L15.7,11.4z M9.9,11.4H5.4c0,1.2,0.2,2.3,0.5,3.3h4.1V11.4L9.9,11.4z M4.8,11.4H1.1
	c0.1,1.2,0.4,2.3,0.8,3.3h3.3C5,13.7,4.9,12.5,4.8,11.4L4.8,11.4z M11.3,16v4.2c1.5-0.4,2.7-2,3.5-4.2H11.3L11.3,16z M9.9,20.2V16
	H6.3C7.1,18.3,8.4,19.9,9.9,20.2L9.9,20.2z M18.4,16h-2.9c-0.5,1.5-1.1,2.8-1.9,3.8C15.6,19.1,17.2,17.8,18.4,16L18.4,16z M5.6,16
	H2.7c1.1,1.7,2.8,3.1,4.8,3.8C6.7,18.9,6,17.6,5.6,16z"/>
</svg>
