<?xml version="1.0" encoding="utf-8"?>
<svg version="1.1"
	 id="svg2" xmlns:svg="http://www.w3.org/2000/svg"
	 xmlns="http://www.w3.org/2000/svg" xmlns:xlink="http://www.w3.org/1999/xlink" x="0px" y="0px" viewBox="0 0 24 24"
	 style="enable-background:new 0 0 24 24;" xml:space="preserve">
<style type="text/css">
	.st0{fill:#FFFFFF;}
</style>
<g id="badge_x5F_run">
	<path class="st0" d="M0.2,12C0.2,5.4,5.5,0,12,0l0,0c6.5,0,11.8,5.4,11.8,12l0,0c0,6.6-5.3,12-11.8,12l0,0C5.5,24,0.2,18.6,0.2,12
		L0.2,12z M3,12c0,5.1,4,9.2,9,9.2l0,0c5,0,9-4.1,9-9.2l0,0c0-5.1-4-9.2-9-9.2l0,0C7,2.8,3,6.9,3,12L3,12z"/>
	<polygon class="st0" points="10.7,6.7 10.7,17.3 15.9,12 	"/>
</g>
</svg>
