<?xml version="1.0" encoding="utf-8"?>
<svg version="1.1"
	 id="svg2" xmlns:svg="http://www.w3.org/2000/svg"
	 xmlns="http://www.w3.org/2000/svg" xmlns:xlink="http://www.w3.org/1999/xlink" x="0px" y="0px" viewBox="0 0 24 24"
	 style="enable-background:new 0 0 24 24;" xml:space="preserve">
<style type="text/css">
	.st0{fill:#FFFFFF;}
</style>
<g id="badge_x5F_run">
	<path class="st0" d="M11.5,18.8c-0.3,0-0.5,0-0.8,0c-4.4,0-8-3.6-8-8.2s3.6-8.2,8-8.2s8,3.6,8,8.2c0,1.1-0.2,2.2-0.6,3.1h2.6
		c0.3-1,0.5-2,0.5-3.1C21.2,4.8,16.5,0,10.7,0S0.2,4.8,0.2,10.7c0,5.9,4.7,10.7,10.5,10.7c0.3,0,0.5,0,0.8,0V18.8z"/>
	<polygon class="st0" points="9.5,6 9.5,15.4 14.1,10.7 	"/>
	<rect x="12.6" y="15" class="st0" width="10.6" height="2.3"/>
	<rect x="12.6" y="21" class="st0" width="10.6" height="2.3"/>
	<rect x="12.6" y="18" class="st0" width="10.6" height="2.3"/>
</g>
</svg>
